<svg width="98" height="49" viewBox="0 0 98 49" fill="none" xmlns="http://www.w3.org/2000/svg">
<path d="M94.7956 -1.40069e-07C96.5653 -6.2711e-08 98.0109 1.43653 97.8953 3.2025C97.1212 15.0288 92.0798 26.2167 83.6482 34.6482C74.4589 43.8375 61.9956 49 49 49C36.0044 49 23.541 43.8375 14.3518 34.6482C5.92024 26.2167 0.878789 15.0288 0.104673 3.2025C-0.0109199 1.43653 1.43466 3.40839e-06 3.2044 3.48575e-06C4.97414 3.56311e-06 6.39625 1.43676 6.5292 3.2015C7.29204 13.3265 11.6541 22.8871 18.8835 30.1165C26.8709 38.1039 37.7041 42.5912 49 42.5912C60.2959 42.5912 71.1291 38.1039 79.1165 30.1165C86.3459 22.8872 90.708 13.3265 91.4708 3.2015C91.6037 1.43676 93.0259 -2.17427e-07 94.7956 -1.40069e-07Z" fill="#FF4948"/>
</svg>
