<svg width="26" height="24" viewBox="0 0 26 24" fill="none" xmlns="http://www.w3.org/2000/svg">
<path d="M12.2516 0.927051C12.551 0.0057404 13.8544 0.0057404 14.1538 0.927051L16.3914 7.81383C16.5253 8.22585 16.9092 8.50481 17.3425 8.50481L24.5837 8.50481C25.5524 8.50481 25.9552 9.74443 25.1714 10.3138L19.3132 14.5701C18.9627 14.8247 18.816 15.2761 18.9499 15.6881L21.1876 22.5749C21.4869 23.4962 20.4324 24.2623 19.6487 23.6929L13.7905 19.4367C13.44 19.182 12.9654 19.182 12.6149 19.4367L6.75668 23.6929C5.97296 24.2623 4.91848 23.4962 5.21784 22.5749L7.45548 15.6881C7.58936 15.2761 7.4427 14.8247 7.09221 14.5701L1.23397 10.3138C0.450258 9.74443 0.853033 8.50481 1.82176 8.50481L9.06294 8.50481C9.49617 8.50481 9.88012 8.22585 10.014 7.81383L12.2516 0.927051Z" fill="#FDAE38"/>
</svg>
